<svg width="40" height="40" viewBox="0 0 40 40" fill="none" xmlns="http://www.w3.org/2000/svg">
<path d="M6.81396 12.5996C6.81396 10.714 6.81396 9.77118 7.39975 9.1854C7.98554 8.59961 8.92835 8.59961 10.814 8.59961H14.9716C15.7869 8.59961 16.1945 8.59961 16.5613 8.7511C16.928 8.90259 17.2168 9.19027 17.7945 9.76563L20.3582 12.3193C20.9358 12.8947 21.2246 13.1823 21.5914 13.3338C21.9581 13.4853 22.3658 13.4853 23.181 13.4853H28.9737C30.8593 13.4853 31.8021 13.4853 32.3879 14.0711C32.9737 14.6569 32.9737 15.5997 32.9737 17.4853V27.3996C32.9737 29.2852 32.9737 30.228 32.3879 30.8138C31.8021 31.3996 30.8593 31.3996 28.9737 31.3996H10.814C8.92835 31.3996 7.98554 31.3996 7.39975 30.8138C6.81396 30.228 6.81396 29.2852 6.81396 27.3996V12.5996Z" stroke="#4F4F4F" stroke-width="2"/>
</svg>
