<svg id="_레이어_1" data-name="레이어 1" xmlns="http://www.w3.org/2000/svg" viewBox="0 0 1308.85 361.22"><defs><style>.cls-3,.cls-5{stroke:#000;stroke-miterlimit:10;stroke-width:3px}.cls-3{fill:#00c97d}.cls-5{fill:#eb5757}</style></defs><path d="M756.63 220c0-36.51 27.09-51.86 65.14-51.86 22.29 0 40.46 3.07 55.2 8.87l1.03-.34v-5.46c0-11.94-9.6-19.11-22.63-18.77-12.69 0-19.89 1.71-32.91 5.12-24.34 6.14-43.54-.68-49.71-21.84-6.17-21.49 4.11-35.82 22.29-44.35 15.77-7.51 35.66-12.97 58.29-12.97 66.17 0 96.69 29.34 96.69 104.4v58.68c0 21.15-13.37 36.17-35.66 36.17-24.34 0-36.34-15.35-36.34-35.14v-8.87h-7.54c-.34 19.79-5.83 44.01-54.17 44.01-37.71 0-59.66-21.15-59.66-57.66zm89.84-13.7c18.77 0 25.59-3.07 25.59-11.6s-6.82-11.26-25.59-11.26c-21.15 0-25.25 3.07-25.25 11.26s4.09 11.6 25.25 11.6z" style="fill:#f2994a;stroke:#000;stroke-miterlimit:10;stroke-width:3px"/><path d="M614 4.31c23.61 0 39 13.65 39 36.85v161.38c0 9.55 4.79 15.01 16.42 8.19 24.97-15.01 42.76-24.57 66.37-24.57 32.84 0 49.95 19.11 49.95 46.74 0 30.02-17.11 46.74-56.79 46.74h-78c-50.29 0-75.95-13.31-75.95-72.33V41.16c0-23.2 16.08-36.85 39-36.85" style="fill:#f2c94c;stroke:#000;stroke-miterlimit:10;stroke-width:3px"/><path d="M949 242.41V116.86c0-21.15 12.91-37.87 36.68-37.87S1021 95.71 1021 117.54v19.11h7.53c0-42.99 27.04-57.66 51.37-57.66 38.86 0 56.1 29.34 56.1 80.86v82.57c0 19.79-14.2 34.8-36.16 34.8s-36.84-15.01-36.84-34.8v-66.69c0-18.25-7.23-28.92-20.31-28.92-15.15 0-21.69 12.39-21.69 29.61v66c0 19.79-13.25 34.8-35.32 34.8S949 262.21 949 242.42z" style="fill:#a0c97d;stroke:#000;stroke-miterlimit:10;stroke-width:3px"/><path d="M1134.43 339.59c-17.43-11.94-26.99-36.16-12.64-58.34 13.33-20.47 33.83-19.45 46.13-13.65 17.77 8.53 24.94 12.28 37.59 12.28 18.45 0 33.49-13.65 33.49-37.87v-30.36h-7.09c-3.77 26.61-20.91 42.99-50.4 42.99-33.94 0-69.26-23.2-69.26-82.91s28.46-87.34 69.6-87.34c28.46 0 51.77 20.13 51.77 53.91l1.37-.34v-21.15c0-17.74 10.97-33.44 35.31-33.44 26.06 0 36.69 15.69 36.69 33.44l.34 119.41c.34 78.81-27.68 123.51-102.51 123.51-31.1 0-50.57-6.48-70.39-20.13zm70.13-153.52c23.2 0 32.07-6.14 32.07-20.47s-8.87-19.45-32.41-19.45c-17.74 0-26.95 5.12-26.95 19.45s9.21 20.47 27.29 20.47z" style="stroke:#000;stroke-miterlimit:10;stroke-width:3px;fill:#8ca1d0"/><path class="cls-5" d="M35.32 198.45 3.15 66.2C-2.78 42 7.49 22.97 30.3 17.39c20.88-5.04 38.67 5.45 43.8 26.98l31.16 127.62c6.69 27.51 19.22 35.74 34.01 31.99 14.79-3.74 19.87-15.23 15.09-42.96-8.36-48.53-9.77-74.11-8.87-90.07 1.5-26.72 17-48.73 46.7-47.06 29.7 1.67 41.05 25.19 39.54 51.92-.9 15.97-6.91 32.63-13.6 50.23l-36.74 95.35c-14.84 38.39-28.92 63.43-69.67 61.13-47.39-2.67-64.09-32.38-76.4-84.07z"/><path class="cls-5" d="M267.42 29.12c-22.69-2.61-37.95 10.09-40.29 30.52-1.77 15.39 4.38 27.71 18.5 33.71-13.68 2.58-20.33 13.28-24.78 29.28l-24.53 97.45c-5.38 21.37 3.4 43.98 22.11 55.62 5.78 3.59 12.03 6.06 18.23 6.77 5.35.61 10.95-.13 16.36-1.89 19.3-6.27 32.29-24.39 32.78-44.68l2.57-106.02c0-.1 0-.2.02-.3 1.68-15.01-3.46-26.8-16.01-32.72 15.96-2.18 24.9-13.08 26.76-29.28 2.35-20.42-8.05-35.74-31.71-38.46zM536.53 26.12c-22.69-2.61-37.95 10.09-40.29 30.52-1.77 15.39 4.38 27.71 18.5 33.71-13.68 2.58-20.33 13.28-24.78 29.28l-24.53 97.45c-5.38 21.37 3.4 43.98 22.11 55.62 5.78 3.59 12.03 6.06 18.23 6.77 5.35.61 10.95-.13 16.36-1.89 19.3-6.27 32.29-24.39 32.78-44.68l2.57-106.02c0-.1 0-.2.02-.3 1.68-15.01-3.46-26.8-16.01-32.72 15.96-2.18 24.9-13.08 26.76-29.28 2.35-20.42-8.05-35.74-31.71-38.46z"/><path class="cls-3" d="m289.97 31.08-11.11 6.06a3.001 3.001 0 0 0-1.51 3.19l2.33 12.44c.53 2.86-2.9 4.73-5.01 2.73l-9.2-8.69a2.995 2.995 0 0 0-3.5-.45l-11.11 6.06c-2.55 1.39-5.39-1.29-4.15-3.92l5.43-11.43c.56-1.17.3-2.57-.65-3.47l-9.2-8.69c-2.11-2-.44-5.53 2.45-5.16l12.55 1.63c1.29.17 2.54-.51 3.1-1.69l5.43-11.43c1.25-2.63 5.12-2.12 5.66.73l2.33 12.44a2.982 2.982 0 0 0 2.56 2.42l12.55 1.63c2.88.37 3.6 4.22 1.05 5.61zM563.15 26.05l-13.02 7.1 2.73 14.58c.53 2.86-2.9 4.73-5.01 2.73l-10.78-10.19-13.02 7.1c-2.55 1.39-5.39-1.29-4.15-3.92l6.36-13.4-10.78-10.19c-2.11-2-.44-5.53 2.45-5.16l14.71 1.91L539 3.21c1.25-2.63 5.12-2.12 5.66.73l2.73 14.58 14.71 1.91c2.88.37 3.6 4.22 1.05 5.61z"/><path class="cls-5" d="M277.73 185.21c0-56.14 21.9-92.37 65.71-92.37 35.31 0 49.37 23.5 55.25 55.81l1.31-.33V38.33c0-19.91 12.1-35.58 34.98-35.58S468 18.42 468 38.98v163.2c0 16.32 3.6 30.03 4.9 43.41 1.64 18.28-6.86 32.97-29.42 36.56-29.42 4.57-43.48-11.42-43.48-41.13v-13.38h-6.86c0 35.58-18.96 54.84-49.04 54.84-44.13 0-66.37-32.64-66.37-97.27zm92.76 18.61c24.15 0 31.66-6.85 31.66-22.19s-7.18-22.2-31.33-22.2-31.99 6.85-31.99 22.2 7.51 22.19 31.66 22.19z"/></svg>