<svg width="40" height="40" viewBox="0 0 40 40" fill="none" xmlns="http://www.w3.org/2000/svg">
<path d="M8.50928 21.237C8.50928 19.0258 8.50928 17.9202 8.95802 16.9484C9.40676 15.9765 10.2495 15.257 11.935 13.818L13.57 12.4221C16.6164 9.82103 18.1397 8.52051 19.9541 8.52051C21.7686 8.52051 23.2918 9.82103 26.3383 12.4221L27.9733 13.818C29.6588 15.257 30.5015 15.9765 30.9503 16.9484C31.399 17.9202 31.399 19.0258 31.399 21.237V28.1428C31.399 31.2136 31.399 32.7491 30.4413 33.7031C29.4835 34.6571 27.942 34.6571 24.8591 34.6571H15.0492C11.9663 34.6571 10.4248 34.6571 9.46703 33.7031C8.50928 32.7491 8.50928 31.2136 8.50928 28.1428V21.237Z" stroke="#4F4F4F" stroke-width="2"/>
<path d="M24.0416 34.6572V25.8857C24.0416 25.3335 23.5939 24.8857 23.0416 24.8857H16.8667C16.3144 24.8857 15.8667 25.3335 15.8667 25.8857V34.6572" stroke="#4F4F4F" stroke-width="2" stroke-linecap="round" stroke-linejoin="round"/>
</svg>
