<svg width="40" height="39" viewBox="0 0 40 39" fill="none" xmlns="http://www.w3.org/2000/svg">
<path d="M18.6179 33.2306L18.1707 34.125L18.1707 34.125L18.6179 33.2306ZM22.1956 33.2306L21.7484 32.3361H21.7484L22.1956 33.2306ZM22.5512 33.0528L22.104 32.1584L22.5512 33.0528ZM23.4868 32.4372L22.6544 31.8832L23.4868 32.4372ZM18.2623 33.0528L18.7095 32.1584L18.2623 33.0528ZM17.3266 32.4372L16.4942 32.9913L17.3266 32.4372ZM14.8669 24.2743L15.4357 23.4519L14.8669 24.2743ZM15.6188 25.1449L14.7026 25.5455L15.6188 25.1449ZM15.3686 24.6676L16.1405 24.0319L15.3686 24.6676ZM25.9466 24.2743L26.5155 25.0968L25.9466 24.2743ZM25.1946 25.1449L24.2784 24.7442L25.1946 25.1449ZM25.4449 24.6676L26.2168 25.3034L25.4449 24.6676ZM29.1567 16.25C29.1567 19.2349 27.663 21.8712 25.3777 23.4519L26.5155 25.0968C29.3176 23.1585 31.1567 19.9191 31.1567 16.25H29.1567ZM20.4067 7.5C25.2392 7.5 29.1567 11.4175 29.1567 16.25H31.1567C31.1567 10.3129 26.3438 5.5 20.4067 5.5V7.5ZM11.6567 16.25C11.6567 11.4175 15.5742 7.5 20.4067 7.5V5.5C14.4697 5.5 9.65674 10.3129 9.65674 16.25H11.6567ZM15.4357 23.4519C13.1505 21.8712 11.6567 19.2349 11.6567 16.25H9.65674C9.65674 19.9191 11.4959 23.1585 14.298 25.0968L15.4357 23.4519ZM18.1129 31.1976C17.9626 28.9698 17.4282 26.7865 16.5351 24.7442L14.7026 25.5455C15.5035 27.3768 15.9827 29.3345 16.1174 31.3321L18.1129 31.1976ZM19.0651 32.3361L18.7095 32.1584L17.8151 33.9472L18.1707 34.125L19.0651 32.3361ZM21.7484 32.3361C20.9038 32.7584 19.9097 32.7584 19.0651 32.3361L18.1707 34.125C19.5783 34.8288 21.2352 34.8288 22.6428 34.125L21.7484 32.3361ZM22.104 32.1584L21.7484 32.3361L22.6428 34.125L22.9984 33.9472L22.104 32.1584ZM24.2784 24.7442C23.3853 26.7865 22.8508 28.9698 22.7006 31.1976L24.6961 31.3321C24.8308 29.3345 25.31 27.3768 26.1109 25.5455L24.2784 24.7442ZM22.9984 33.9472C23.2443 33.8242 23.4909 33.7021 23.6898 33.5782C23.9039 33.4447 24.1365 33.266 24.3193 32.9913L22.6544 31.8832C22.6898 31.8299 22.7173 31.8276 22.6319 31.8808C22.5311 31.9436 22.3835 32.0186 22.104 32.1584L22.9984 33.9472ZM22.7006 31.1976C22.678 31.5325 22.6646 31.7187 22.6438 31.8513C22.6248 31.9727 22.6134 31.9448 22.6544 31.8832L24.3193 32.9913C24.5077 32.7083 24.5806 32.4111 24.6198 32.1602C24.6573 31.9205 24.6759 31.6312 24.6961 31.3321L22.7006 31.1976ZM16.1174 31.3321C16.1376 31.6312 16.1562 31.9205 16.1937 32.1602C16.2329 32.4111 16.3058 32.7083 16.4942 32.9913L18.1591 31.8832C18.2001 31.9448 18.1886 31.9727 18.1697 31.8513C18.1489 31.7187 18.1355 31.5325 18.1129 31.1976L16.1174 31.3321ZM18.7095 32.1584C18.4299 32.0186 18.2823 31.9436 18.1816 31.8808C18.0961 31.8276 18.1237 31.8299 18.1591 31.8832L16.4942 32.9913C16.677 33.266 16.9096 33.4447 17.1237 33.5782C17.3226 33.7021 17.5691 33.8242 17.8151 33.9472L18.7095 32.1584ZM14.298 25.0968C14.4435 25.1974 14.524 25.2534 14.5807 25.2967C14.6337 25.3372 14.6223 25.3344 14.5967 25.3034L16.1405 24.0319C15.9409 23.7895 15.6536 23.6026 15.4357 23.4519L14.298 25.0968ZM16.5351 24.7442C16.4473 24.5435 16.3372 24.2707 16.1405 24.0319L14.5967 25.3034C14.5804 25.2836 14.578 25.2735 14.5944 25.3059C14.6037 25.3244 14.6164 25.351 14.6351 25.3924C14.6539 25.4341 14.675 25.4824 14.7026 25.5455L16.5351 24.7442ZM25.3777 23.4519C25.1599 23.6026 24.8726 23.7895 24.6729 24.0319L26.2168 25.3034C26.1912 25.3344 26.1797 25.3372 26.2327 25.2967C26.2895 25.2534 26.3699 25.1974 26.5155 25.0968L25.3777 23.4519ZM26.1109 25.5455C26.1385 25.4824 26.1596 25.4341 26.1784 25.3924C26.1971 25.351 26.2097 25.3244 26.2191 25.3059C26.2355 25.2735 26.2331 25.2836 26.2168 25.3034L24.6729 24.0319C24.4763 24.2707 24.3662 24.5435 24.2784 24.7442L26.1109 25.5455Z" fill="#4F4F4F"/>
<path d="M25.2693 26V26C22.3263 27.9672 18.4879 27.9672 15.5449 26V26" stroke="#4F4F4F" stroke-width="2"/>
</svg>
