<svg width="4" height="15" viewBox="0 0 4 15" fill="none" xmlns="http://www.w3.org/2000/svg">
<path d="M0.14437 2.43426C0.14437 2.03582 0.285232 1.69373 0.566955 1.40798C0.852704 1.12626 1.1948 0.985396 1.59323 0.985396C1.98765 0.985396 2.32571 1.12626 2.60744 1.40798C2.88916 1.69373 3.03002 2.03582 3.03002 2.43426C3.03002 2.82062 2.88916 3.15869 2.60744 3.44846C2.32571 3.73824 1.98765 3.88312 1.59323 3.88312C1.32761 3.88312 1.08412 3.8147 0.862765 3.67787C0.645435 3.54505 0.470364 3.36998 0.337552 3.15265C0.208764 2.93532 0.14437 2.69586 0.14437 2.43426ZM0.14437 7.49774C0.14437 7.0993 0.285232 6.75721 0.566955 6.47146C0.852703 6.18973 1.1948 6.04887 1.59323 6.04887C1.98765 6.04887 2.32571 6.18973 2.60744 6.47146C2.88916 6.75721 3.03002 7.0993 3.03002 7.49774C3.03002 7.8841 2.88916 8.22217 2.60744 8.51194C2.32571 8.80171 1.98765 8.9466 1.59323 8.9466C1.32761 8.9466 1.08412 8.87818 0.862765 8.74134C0.645435 8.60853 0.470364 8.43346 0.337552 8.21613C0.208764 7.9988 0.14437 7.75934 0.14437 7.49774ZM0.14437 12.5612C0.14437 12.1628 0.285231 11.8207 0.566955 11.5349C0.852703 11.2532 1.1948 11.1123 1.59323 11.1123C1.98765 11.1123 2.32571 11.2532 2.60744 11.5349C2.88916 11.8207 3.03002 12.1628 3.03002 12.5612C3.03002 12.9476 2.88916 13.2856 2.60744 13.5754C2.32571 13.8652 1.98765 14.0101 1.59323 14.0101C1.32761 14.0101 1.08412 13.9417 0.862765 13.8048C0.645435 13.672 0.470364 13.4969 0.337551 13.2796C0.208764 13.0623 0.14437 12.8228 0.14437 12.5612Z" fill="white"/>
<path d="M0.14437 2.43426C0.14437 2.03582 0.285232 1.69373 0.566955 1.40798C0.852704 1.12626 1.1948 0.985396 1.59323 0.985396C1.98765 0.985396 2.32571 1.12626 2.60744 1.40798C2.88916 1.69373 3.03002 2.03582 3.03002 2.43426C3.03002 2.82062 2.88916 3.15869 2.60744 3.44846C2.32571 3.73824 1.98765 3.88312 1.59323 3.88312C1.32761 3.88312 1.08412 3.8147 0.862765 3.67787C0.645435 3.54505 0.470364 3.36998 0.337552 3.15265C0.208764 2.93532 0.14437 2.69586 0.14437 2.43426ZM0.14437 7.49774C0.14437 7.0993 0.285232 6.75721 0.566955 6.47146C0.852703 6.18973 1.1948 6.04887 1.59323 6.04887C1.98765 6.04887 2.32571 6.18973 2.60744 6.47146C2.88916 6.75721 3.03002 7.0993 3.03002 7.49774C3.03002 7.8841 2.88916 8.22217 2.60744 8.51194C2.32571 8.80171 1.98765 8.9466 1.59323 8.9466C1.32761 8.9466 1.08412 8.87818 0.862765 8.74134C0.645435 8.60853 0.470364 8.43346 0.337552 8.21613C0.208764 7.9988 0.14437 7.75934 0.14437 7.49774ZM0.14437 12.5612C0.14437 12.1628 0.285231 11.8207 0.566955 11.5349C0.852703 11.2532 1.1948 11.1123 1.59323 11.1123C1.98765 11.1123 2.32571 11.2532 2.60744 11.5349C2.88916 11.8207 3.03002 12.1628 3.03002 12.5612C3.03002 12.9476 2.88916 13.2856 2.60744 13.5754C2.32571 13.8652 1.98765 14.0101 1.59323 14.0101C1.32761 14.0101 1.08412 13.9417 0.862765 13.8048C0.645435 13.672 0.470364 13.4969 0.337551 13.2796C0.208764 13.0623 0.14437 12.8228 0.14437 12.5612Z" fill="#292D32"/>
</svg>
